<svg width="21" height="24" viewBox="0 0 21 24" fill="none" xmlns="http://www.w3.org/2000/svg">
<path d="M13.3756 13.1415C14.6402 12.5316 15.6741 11.5345 16.3197 10.2956C17.0059 8.97908 17.2117 7.46988 16.9026 6.02134C16.5934 4.57282 15.7882 3.27345 14.6224 2.34107C13.4566 1.40872 12.001 0.9 10.5 0.9C8.99898 0.9 7.54345 1.40872 6.37763 2.34107C5.21178 3.27345 4.40655 4.57282 4.09741 6.02134C3.78826 7.46988 3.9941 8.97908 4.68027 10.2956C5.32592 11.5344 6.35977 12.5316 7.62436 13.1415C3.73056 14.3985 0.9 18.1403 0.9 22.5446V23V23.1H1H20H20.1V23V22.5446C20.1 18.1403 17.2673 14.3985 13.3756 13.1415ZM5.08038 7.34988C5.0804 6.29404 5.39813 5.26179 5.99356 4.38364C6.58902 3.50545 7.43553 2.82076 8.42621 2.41639C9.4169 2.012 10.5071 1.90618 11.5589 2.11235C12.6107 2.31852 13.5767 2.82737 14.3347 3.57434C15.0927 4.3213 15.6087 5.2728 15.8178 6.30843C16.0268 7.34406 15.9195 8.41754 15.5094 9.39317C15.0993 10.3688 14.4047 11.203 13.5133 11.7899C12.6218 12.3769 11.5736 12.6903 10.5012 12.6903C9.0636 12.6886 7.68564 12.1251 6.66951 11.1237C5.65344 10.1225 5.08212 8.76525 5.08038 7.34988ZM18.9612 21.9914L2.04103 21.9893C2.31899 17.4228 6.00203 13.7989 10.5011 13.7989C15.0002 13.7989 18.6833 17.4228 18.9612 21.9914Z" fill="black" stroke="black" stroke-width="0.2"/>
</svg>
