<svg width="24" height="24" viewBox="0 0 24 24" fill="none" xmlns="http://www.w3.org/2000/svg">
<path d="M15.58 12C15.58 12.7081 15.37 13.4003 14.9766 13.989C14.5833 14.5777 14.0242 15.0366 13.37 15.3075C12.7158 15.5785 11.996 15.6494 11.3016 15.5113C10.6071 15.3731 9.96921 15.0322 9.46854 14.5315C8.96787 14.0308 8.62691 13.3929 8.48877 12.6985C8.35064 12.004 8.42153 11.2842 8.6925 10.63C8.96346 9.97588 9.42232 9.41676 10.011 9.02338C10.5998 8.63001 11.2919 8.42005 12 8.42005C12.4703 8.41952 12.936 8.51176 13.3706 8.69149C13.8052 8.87121 14.2001 9.13489 14.5326 9.46743C14.8651 9.79997 15.1288 10.1948 15.3085 10.6294C15.4883 11.064 15.5805 11.5298 15.58 12Z" stroke="#A2A9B0" stroke-width="1.5" stroke-linecap="round" stroke-linejoin="round"/>
<path d="M11.9999 20.27C15.5299 20.27 18.8199 18.19 21.1099 14.59C21.5525 13.7967 21.7849 12.9034 21.7849 11.995C21.7849 11.0866 21.5525 10.1933 21.1099 9.39997C18.8149 5.79997 15.5299 3.71997 11.9999 3.71997C8.46992 3.71997 5.17992 5.79997 2.88992 9.39997C2.44731 10.1933 2.21497 11.0866 2.21497 11.995C2.21497 12.9034 2.44731 13.7967 2.88992 14.59C5.17992 18.19 8.46992 20.27 11.9999 20.27Z" stroke="#A2A9B0" stroke-width="1.5" stroke-linecap="round" stroke-linejoin="round"/>
</svg>
